<svg aria-hidden="true" style="position: absolute; width: 0; height: 0; overflow: hidden;" version="1.1" xmlns="http://www.w3.org/2000/svg" xmlns:xlink="http://www.w3.org/1999/xlink">
<defs>
<symbol id="icon-chevron-thin-up" viewBox="0 0 20 20">
<title>chevron-thin-up</title>
<path d="M2.582 13.891c-0.272 0.268-0.709 0.268-0.979 0s-0.271-0.701 0-0.969l7.908-7.83c0.27-0.268 0.707-0.268 0.979 0l7.908 7.83c0.27 0.268 0.27 0.701 0 0.969s-0.709 0.268-0.978 0l-7.42-7.141-7.418 7.141z"></path>
</symbol>
<symbol id="icon-cart" viewBox="0 0 64 64">
<path d="M24 58c0 3.314-2.686 6-6 6s-6-2.686-6-6c0-3.314 2.686-6 6-6s6 2.686 6 6z"></path>
<path d="M64 58c0 3.314-2.686 6-6 6s-6-2.686-6-6c0-3.314 2.686-6 6-6s6 2.686 6 6z"></path>
<path d="M64 32v-24h-48c0-2.209-1.791-4-4-4h-12v4h8l3.005 25.753c-1.831 1.466-3.005 3.719-3.005 6.247 0 4.419 3.582 8 8 8h48v-4h-48c-2.209 0-4-1.791-4-4 0-0.014 0.001-0.027 0.001-0.041l51.999-7.959z"></path>
</symbol>
<symbol id="icon-phone" viewBox="0 0 64 64">
<path d="M44 40c-4 4-4 8-8 8s-8-4-12-8-8-8-8-12 4-4 8-8-8-16-12-16-12 12-12 12c0 8 8.219 24.219 16 32s24 16 32 16c0 0 12-8 12-12s-12-16-16-12z"></path>
</symbol>
<symbol id="icon-envelop" viewBox="0 0 64 64">
<path d="M58 8h-52c-3.3 0-6 2.7-6 6v40c0 3.3 2.7 6 6 6h52c3.3 0 6-2.7 6-6v-40c0-3.3-2.7-6-6-6zM24.921 34.398l-16.921 13.181v-31.353l16.921 18.172zM11.024 16h41.953l-20.976 15.75-20.976-15.75zM25.581 35.106l6.419 6.894 6.419-6.894 13.16 16.894h-39.158l13.16-16.894zM39.079 34.398l16.921-18.172v31.353l-16.921-13.181z"></path>
</symbol>
<symbol id="icon-user" viewBox="0 0 64 64">
<path d="M36 44.163v-3.299c4.406-2.483 8-8.673 8-14.864 0-9.941 0-18-12-18s-12 8.059-12 18c0 6.191 3.594 12.382 8 14.864v3.299c-13.569 1.109-24 7.776-24 15.837h56c0-8.060-10.431-14.727-24-15.837z"></path>
</symbol>
<symbol id="icon-arrow-up2" viewBox="0 0 64 64">
<path d="M54.828 25.172l-20-20c-1.562-1.562-4.095-1.562-5.657 0l-20 20c-1.562 1.562-1.562 4.095 0 5.657s4.095 1.562 5.657 0l13.171-13.172v38.343c0 2.209 1.791 4 4 4s4-1.791 4-4v-38.343l13.172 13.172c0.781 0.781 1.805 1.172 2.828 1.172s2.047-0.39 2.828-1.172c1.562-1.562 1.562-4.095 0-5.657z"></path>
</symbol>
<symbol id="icon-arrow-right2" viewBox="0 0 64 64">
<path d="M38.828 54.828l20-20c1.562-1.562 1.562-4.095 0-5.657l-20-20c-1.562-1.562-4.095-1.562-5.657 0s-1.562 4.095 0 5.657l13.172 13.172h-38.343c-2.209 0-4 1.791-4 4s1.791 4 4 4h38.343l-13.172 13.172c-0.781 0.781-1.172 1.805-1.172 2.828s0.391 2.047 1.172 2.828c1.562 1.562 4.095 1.562 5.657 0z"></path>
</symbol>
<symbol id="icon-arrow-left2" viewBox="0 0 64 64">
<path d="M25.172 54.828l-20-20c-1.562-1.562-1.562-4.095 0-5.657l20-20c1.562-1.562 4.095-1.562 5.657 0s1.562 4.095 0 5.657l-13.172 13.172h38.343c2.209 0 4 1.791 4 4s-1.791 4-4 4h-38.343l13.172 13.172c0.781 0.781 1.172 1.805 1.172 2.828s-0.39 2.047-1.172 2.828c-1.562 1.562-4.095 1.562-5.657 0z"></path>
</symbol>
<symbol id="icon-search" viewBox="0 0 64 64">
<path d="M62.016 54.462l-15.16-12.893c-1.567-1.41-3.243-2.058-4.597-1.995 3.578-4.192 5.74-9.63 5.74-15.573 0-13.255-10.745-24-24-24s-24 10.745-24 24 10.745 24 24 24c5.944 0 11.382-2.162 15.574-5.74-0.063 1.354 0.585 3.030 1.995 4.597l12.893 15.16c2.208 2.453 5.814 2.66 8.014 0.46s1.993-5.806-0.46-8.014zM24 40c-8.836 0-16-7.163-16-16s7.163-16 16-16 16 7.163 16 16-7.163 16-16 16z"></path>
</symbol>
<symbol id="icon-circle-right" viewBox="0 0 64 64">
<path d="M32 0c-17.673 0-32 14.327-32 32s14.327 32 32 32 32-14.327 32-32-14.327-32-32-32zM32 58c-14.359 0-26-11.641-26-26s11.641-26 26-26 26 11.641 26 26-11.641 26-26 26z"></path>
<path d="M22.172 44.172l5.657 5.657 17.828-17.828-17.828-17.828-5.657 5.657 12.171 12.172z"></path>
</symbol>
<symbol id="icon-circle-left" viewBox="0 0 64 64">
<path d="M32 64c17.673 0 32-14.327 32-32s-14.327-32-32-32-32 14.327-32 32 14.327 32 32 32zM32 6c14.359 0 26 11.641 26 26s-11.641 26-26 26-26-11.641-26-26 11.641-26 26-26z"></path>
<path d="M41.828 19.828l-5.657-5.657-17.828 17.828 17.828 17.828 5.657-5.657-12.172-12.172z"></path>
</symbol>
<symbol id="icon-navigate_next" viewBox="0 0 24 24">
<path d="M9.984 6l6 6-6 6-1.406-1.406 4.594-4.594-4.594-4.594z"></path>
</symbol>
<symbol id="icon-navigate_before" viewBox="0 0 24 24">
<path d="M15.422 7.406l-4.594 4.594 4.594 4.594-1.406 1.406-6-6 6-6z"></path>
</symbol>
<symbol id="icon-star-empty" viewBox="0 0 64 64">
<path d="M64 24.816l-22.111-3.213-9.889-20.036-9.889 20.036-22.111 3.213 16 15.596-3.777 22.022 19.777-10.397 19.777 10.397-3.777-22.022 16-15.596zM32 47.094l-13.966 7.343 2.667-15.552-11.299-11.014 15.615-2.269 6.983-14.15 6.983 14.15 15.615 2.269-11.299 11.014 2.667 15.552-13.966-7.343z"></path>
</symbol>
<symbol id="icon-star-full" viewBox="0 0 64 64">
<path d="M64 24.816l-22.111-3.213-9.889-20.036-9.889 20.036-22.111 3.213 16 15.596-3.777 22.022 19.777-10.397 19.777 10.397-3.777-22.022 16-15.596z"></path>
</symbol>
<symbol id="icon-cart2"  viewBox="0 0 260.293 260.293">
<path d="M258.727,57.459c-1.42-1.837-3.612-2.913-5.934-2.913H62.004l-8.333-32.055c-0.859-3.306-3.843-5.613-7.259-5.613H7.5
		c-4.142,0-7.5,3.358-7.5,7.5c0,4.142,3.358,7.5,7.5,7.5h33.112l8.333,32.055c0,0.001,0,0.001,0.001,0.002l29.381,112.969
		c0.859,3.305,3.843,5.612,7.258,5.612h137.822c3.415,0,6.399-2.307,7.258-5.612l29.385-112.971
		C260.636,61.687,260.147,59.295,258.727,57.459z M117.877,167.517H91.385l-5.892-22.652h32.384V167.517z M117.877,129.864H81.592
		l-5.895-22.667h42.18V129.864z M117.877,92.197H71.795l-5.891-22.651h51.973V92.197z M176.119,167.517h-43.242v-22.652h43.242
		V167.517z M176.119,129.864h-43.242v-22.667h43.242V129.864z M176.119,92.197h-43.242V69.546h43.242V92.197z M217.609,167.517
		h-26.49v-22.652h32.382L217.609,167.517z M227.403,129.864h-36.284v-22.667h42.18L227.403,129.864z M237.201,92.197h-46.081V69.546
		h51.974L237.201,92.197z"/>
	<path d="M105.482,188.62c-15.106,0-27.396,12.29-27.396,27.395c0,15.108,12.29,27.4,27.396,27.4
		c15.105,0,27.395-12.292,27.395-27.4C132.877,200.91,120.588,188.62,105.482,188.62z M105.482,228.415
		c-6.835,0-12.396-5.563-12.396-12.4c0-6.835,5.561-12.395,12.396-12.395c6.834,0,12.395,5.561,12.395,12.395
		C117.877,222.853,112.317,228.415,105.482,228.415z"/>
	<path d="M203.512,188.62c-15.104,0-27.392,12.29-27.392,27.395c0,15.108,12.288,27.4,27.392,27.4
		c15.107,0,27.396-12.292,27.396-27.4C230.908,200.91,218.618,188.62,203.512,188.62z M203.512,228.415
		c-6.833,0-12.392-5.563-12.392-12.4c0-6.835,5.559-12.395,12.392-12.395c6.836,0,12.396,5.561,12.396,12.395
		C215.908,222.853,210.347,228.415,203.512,228.415z"/>
</symbol>
<symbol id="icon-user2"  viewBox="0 0 19.738 19.738">
<path d="M18.18,19.738h-2c0-3.374-2.83-6.118-6.311-6.118s-6.31,2.745-6.31,6.118h-2
		c0-4.478,3.729-8.118,8.311-8.118C14.451,11.62,18.18,15.26,18.18,19.738z"/>
	<path d="M9.87,10.97c-3.023,0-5.484-2.462-5.484-5.485C4.385,2.461,6.846,0,9.87,0
		c3.025,0,5.486,2.46,5.486,5.485S12.895,10.97,9.87,10.97z M9.87,2C7.948,2,6.385,3.563,6.385,5.485S7.948,8.97,9.87,8.97
		c1.923,0,3.486-1.563,3.486-3.485S11.791,2,9.87,2z"/>
</symbol>
<symbol id="icon-facebook2" viewBox="0 0 64 64">
<path d="M58 0h-52c-3.3 0-6 2.7-6 6v52c0 3.3 2.7 6 6 6h26v-28h-8v-8h8v-4c0-6.613 5.388-12 12-12h8v8h-8c-2.2 0-4 1.8-4 4v4h12l-2 8h-10v28h18c3.3 0 6-2.7 6-6v-52c0-3.3-2.7-6-6-6z"></path>
</symbol>
<symbol id="icon-instagram" viewBox="0 0 64 64">
<path d="M32 5.763c8.55 0 9.563 0.037 12.925 0.188 3.125 0.138 4.813 0.662 5.938 1.1 1.487 0.575 2.563 1.275 3.675 2.387 1.125 1.125 1.813 2.188 2.4 3.675 0.438 1.125 0.962 2.825 1.1 5.938 0.15 3.375 0.188 4.387 0.188 12.925s-0.038 9.563-0.188 12.925c-0.138 3.125-0.663 4.813-1.1 5.938-0.575 1.487-1.275 2.563-2.388 3.675-1.125 1.125-2.188 1.813-3.675 2.4-1.125 0.438-2.825 0.962-5.938 1.1-3.375 0.15-4.388 0.188-12.925 0.188s-9.563-0.038-12.925-0.188c-3.125-0.138-4.813-0.663-5.938-1.1-1.488-0.575-2.563-1.275-3.675-2.388-1.125-1.125-1.813-2.188-2.4-3.675-0.438-1.125-0.963-2.825-1.1-5.938-0.15-3.375-0.188-4.388-0.188-12.925s0.037-9.563 0.188-12.925c0.138-3.125 0.662-4.813 1.1-5.938 0.575-1.488 1.275-2.563 2.388-3.675 1.125-1.125 2.188-1.813 3.675-2.4 1.125-0.438 2.825-0.963 5.938-1.1 3.363-0.15 4.375-0.188 12.925-0.188zM32 0c-8.688 0-9.775 0.037-13.188 0.188-3.4 0.15-5.738 0.7-7.762 1.488-2.113 0.825-3.9 1.913-5.675 3.7-1.788 1.775-2.875 3.563-3.7 5.662-0.787 2.037-1.337 4.362-1.488 7.763-0.15 3.425-0.188 4.512-0.188 13.2s0.037 9.775 0.188 13.188c0.15 3.4 0.7 5.737 1.488 7.763 0.825 2.112 1.913 3.9 3.7 5.675 1.775 1.775 3.562 2.875 5.663 3.688 2.037 0.788 4.363 1.337 7.762 1.487 3.413 0.15 4.5 0.188 13.188 0.188s9.775-0.038 13.187-0.188c3.4-0.15 5.737-0.7 7.763-1.487 2.1-0.813 3.888-1.913 5.663-3.688s2.875-3.563 3.688-5.663c0.788-2.038 1.337-4.362 1.487-7.763 0.15-3.413 0.188-4.5 0.188-13.188s-0.038-9.775-0.188-13.188c-0.15-3.4-0.7-5.738-1.487-7.762-0.788-2.125-1.875-3.912-3.663-5.688-1.775-1.775-3.563-2.875-5.663-3.688-2.038-0.787-4.362-1.337-7.763-1.488-3.425-0.163-4.513-0.2-13.2-0.2v0z"></path>
<path d="M32 15.563c-9.075 0-16.438 7.363-16.438 16.438s7.363 16.438 16.438 16.438 16.438-7.362 16.438-16.438c0-9.075-7.362-16.438-16.438-16.438zM32 42.663c-5.887 0-10.663-4.775-10.663-10.663s4.775-10.663 10.663-10.663c5.888 0 10.663 4.775 10.663 10.663s-4.775 10.663-10.663 10.663z"></path>
<path d="M52.925 14.912c0 2.119-1.718 3.838-3.837 3.838s-3.837-1.718-3.837-3.838c0-2.119 1.718-3.838 3.837-3.838s3.837 1.718 3.837 3.838z"></path>
</symbol>
</defs>
</svg>
