<svg aria-hidden="true" style="position: absolute; width: 0; height: 0; overflow: hidden;" version="1.1" xmlns="http://www.w3.org/2000/svg" xmlns:xlink="http://www.w3.org/1999/xlink">
<defs>
<symbol id="icon-chevron-thin-up" viewBox="0 0 20 20">
<title>chevron-thin-up</title>
<path d="M2.582 13.891c-0.272 0.268-0.709 0.268-0.979 0s-0.271-0.701 0-0.969l7.908-7.83c0.27-0.268 0.707-0.268 0.979 0l7.908 7.83c0.27 0.268 0.27 0.701 0 0.969s-0.709 0.268-0.978 0l-7.42-7.141-7.418 7.141z"></path>
</symbol>
<symbol id="icon-cart" viewBox="0 0 64 64">
<path d="M24 58c0 3.314-2.686 6-6 6s-6-2.686-6-6c0-3.314 2.686-6 6-6s6 2.686 6 6z"></path>
<path d="M64 58c0 3.314-2.686 6-6 6s-6-2.686-6-6c0-3.314 2.686-6 6-6s6 2.686 6 6z"></path>
<path d="M64 32v-24h-48c0-2.209-1.791-4-4-4h-12v4h8l3.005 25.753c-1.831 1.466-3.005 3.719-3.005 6.247 0 4.419 3.582 8 8 8h48v-4h-48c-2.209 0-4-1.791-4-4 0-0.014 0.001-0.027 0.001-0.041l51.999-7.959z"></path>
</symbol>
<symbol id="icon-phone" viewBox="0 0 64 64">
<path d="M44 40c-4 4-4 8-8 8s-8-4-12-8-8-8-8-12 4-4 8-8-8-16-12-16-12 12-12 12c0 8 8.219 24.219 16 32s24 16 32 16c0 0 12-8 12-12s-12-16-16-12z"></path>
</symbol>
<symbol id="icon-envelop" viewBox="0 0 64 64">
<path d="M58 8h-52c-3.3 0-6 2.7-6 6v40c0 3.3 2.7 6 6 6h52c3.3 0 6-2.7 6-6v-40c0-3.3-2.7-6-6-6zM24.921 34.398l-16.921 13.181v-31.353l16.921 18.172zM11.024 16h41.953l-20.976 15.75-20.976-15.75zM25.581 35.106l6.419 6.894 6.419-6.894 13.16 16.894h-39.158l13.16-16.894zM39.079 34.398l16.921-18.172v31.353l-16.921-13.181z"></path>
</symbol>
<symbol id="icon-user" viewBox="0 0 64 64">
<path d="M36 44.163v-3.299c4.406-2.483 8-8.673 8-14.864 0-9.941 0-18-12-18s-12 8.059-12 18c0 6.191 3.594 12.382 8 14.864v3.299c-13.569 1.109-24 7.776-24 15.837h56c0-8.060-10.431-14.727-24-15.837z"></path>
</symbol>
<symbol id="icon-arrow-up2" viewBox="0 0 64 64">
<path d="M54.828 25.172l-20-20c-1.562-1.562-4.095-1.562-5.657 0l-20 20c-1.562 1.562-1.562 4.095 0 5.657s4.095 1.562 5.657 0l13.171-13.172v38.343c0 2.209 1.791 4 4 4s4-1.791 4-4v-38.343l13.172 13.172c0.781 0.781 1.805 1.172 2.828 1.172s2.047-0.39 2.828-1.172c1.562-1.562 1.562-4.095 0-5.657z"></path>
</symbol>
<symbol id="icon-arrow-right2" viewBox="0 0 64 64">
<path d="M38.828 54.828l20-20c1.562-1.562 1.562-4.095 0-5.657l-20-20c-1.562-1.562-4.095-1.562-5.657 0s-1.562 4.095 0 5.657l13.172 13.172h-38.343c-2.209 0-4 1.791-4 4s1.791 4 4 4h38.343l-13.172 13.172c-0.781 0.781-1.172 1.805-1.172 2.828s0.391 2.047 1.172 2.828c1.562 1.562 4.095 1.562 5.657 0z"></path>
</symbol>
<symbol id="icon-arrow-left2" viewBox="0 0 64 64">
<path d="M25.172 54.828l-20-20c-1.562-1.562-1.562-4.095 0-5.657l20-20c1.562-1.562 4.095-1.562 5.657 0s1.562 4.095 0 5.657l-13.172 13.172h38.343c2.209 0 4 1.791 4 4s-1.791 4-4 4h-38.343l13.172 13.172c0.781 0.781 1.172 1.805 1.172 2.828s-0.39 2.047-1.172 2.828c-1.562 1.562-4.095 1.562-5.657 0z"></path>
</symbol>
<symbol id="icon-search" viewBox="0 0 64 64">
<path d="M62.016 54.462l-15.16-12.893c-1.567-1.41-3.243-2.058-4.597-1.995 3.578-4.192 5.74-9.63 5.74-15.573 0-13.255-10.745-24-24-24s-24 10.745-24 24 10.745 24 24 24c5.944 0 11.382-2.162 15.574-5.74-0.063 1.354 0.585 3.030 1.995 4.597l12.893 15.16c2.208 2.453 5.814 2.66 8.014 0.46s1.993-5.806-0.46-8.014zM24 40c-8.836 0-16-7.163-16-16s7.163-16 16-16 16 7.163 16 16-7.163 16-16 16z"></path>
</symbol>
<symbol id="icon-circle-right" viewBox="0 0 64 64">
<path d="M32 0c-17.673 0-32 14.327-32 32s14.327 32 32 32 32-14.327 32-32-14.327-32-32-32zM32 58c-14.359 0-26-11.641-26-26s11.641-26 26-26 26 11.641 26 26-11.641 26-26 26z"></path>
<path d="M22.172 44.172l5.657 5.657 17.828-17.828-17.828-17.828-5.657 5.657 12.171 12.172z"></path>
</symbol>
<symbol id="icon-circle-left" viewBox="0 0 64 64">
<path d="M32 64c17.673 0 32-14.327 32-32s-14.327-32-32-32-32 14.327-32 32 14.327 32 32 32zM32 6c14.359 0 26 11.641 26 26s-11.641 26-26 26-26-11.641-26-26 11.641-26 26-26z"></path>
<path d="M41.828 19.828l-5.657-5.657-17.828 17.828 17.828 17.828 5.657-5.657-12.172-12.172z"></path>
</symbol>
<symbol id="icon-navigate_next" viewBox="0 0 24 24">
<path d="M9.984 6l6 6-6 6-1.406-1.406 4.594-4.594-4.594-4.594z"></path>
</symbol>
<symbol id="icon-navigate_before" viewBox="0 0 24 24">
<path d="M15.422 7.406l-4.594 4.594 4.594 4.594-1.406 1.406-6-6 6-6z"></path>
</symbol>
<symbol id="icon-star-empty" viewBox="0 0 64 64">
<path d="M64 24.816l-22.111-3.213-9.889-20.036-9.889 20.036-22.111 3.213 16 15.596-3.777 22.022 19.777-10.397 19.777 10.397-3.777-22.022 16-15.596zM32 47.094l-13.966 7.343 2.667-15.552-11.299-11.014 15.615-2.269 6.983-14.15 6.983 14.15 15.615 2.269-11.299 11.014 2.667 15.552-13.966-7.343z"></path>
</symbol>
<symbol id="icon-star-full" viewBox="0 0 64 64">
<path d="M64 24.816l-22.111-3.213-9.889-20.036-9.889 20.036-22.111 3.213 16 15.596-3.777 22.022 19.777-10.397 19.777 10.397-3.777-22.022 16-15.596z"></path>
</symbol>
<symbol id="icon-cart2"  viewBox="0 0 260.293 260.293">
<path d="M258.727,57.459c-1.42-1.837-3.612-2.913-5.934-2.913H62.004l-8.333-32.055c-0.859-3.306-3.843-5.613-7.259-5.613H7.5
		c-4.142,0-7.5,3.358-7.5,7.5c0,4.142,3.358,7.5,7.5,7.5h33.112l8.333,32.055c0,0.001,0,0.001,0.001,0.002l29.381,112.969
		c0.859,3.305,3.843,5.612,7.258,5.612h137.822c3.415,0,6.399-2.307,7.258-5.612l29.385-112.971
		C260.636,61.687,260.147,59.295,258.727,57.459z M117.877,167.517H91.385l-5.892-22.652h32.384V167.517z M117.877,129.864H81.592
		l-5.895-22.667h42.18V129.864z M117.877,92.197H71.795l-5.891-22.651h51.973V92.197z M176.119,167.517h-43.242v-22.652h43.242
		V167.517z M176.119,129.864h-43.242v-22.667h43.242V129.864z M176.119,92.197h-43.242V69.546h43.242V92.197z M217.609,167.517
		h-26.49v-22.652h32.382L217.609,167.517z M227.403,129.864h-36.284v-22.667h42.18L227.403,129.864z M237.201,92.197h-46.081V69.546
		h51.974L237.201,92.197z"/>
	<path d="M105.482,188.62c-15.106,0-27.396,12.29-27.396,27.395c0,15.108,12.29,27.4,27.396,27.4
		c15.105,0,27.395-12.292,27.395-27.4C132.877,200.91,120.588,188.62,105.482,188.62z M105.482,228.415
		c-6.835,0-12.396-5.563-12.396-12.4c0-6.835,5.561-12.395,12.396-12.395c6.834,0,12.395,5.561,12.395,12.395
		C117.877,222.853,112.317,228.415,105.482,228.415z"/>
	<path d="M203.512,188.62c-15.104,0-27.392,12.29-27.392,27.395c0,15.108,12.288,27.4,27.392,27.4
		c15.107,0,27.396-12.292,27.396-27.4C230.908,200.91,218.618,188.62,203.512,188.62z M203.512,228.415
		c-6.833,0-12.392-5.563-12.392-12.4c0-6.835,5.559-12.395,12.392-12.395c6.836,0,12.396,5.561,12.396,12.395
		C215.908,222.853,210.347,228.415,203.512,228.415z"/>
</symbol>
<symbol id="icon-user2"  viewBox="0 0 19.738 19.738">
<path d="M18.18,19.738h-2c0-3.374-2.83-6.118-6.311-6.118s-6.31,2.745-6.31,6.118h-2
		c0-4.478,3.729-8.118,8.311-8.118C14.451,11.62,18.18,15.26,18.18,19.738z"/>
	<path d="M9.87,10.97c-3.023,0-5.484-2.462-5.484-5.485C4.385,2.461,6.846,0,9.87,0
		c3.025,0,5.486,2.46,5.486,5.485S12.895,10.97,9.87,10.97z M9.87,2C7.948,2,6.385,3.563,6.385,5.485S7.948,8.97,9.87,8.97
		c1.923,0,3.486-1.563,3.486-3.485S11.791,2,9.87,2z"/>
</symbol>
<symbol id="icon-facebook2" viewBox="0 0 64 64">
<path d="M58 0h-52c-3.3 0-6 2.7-6 6v52c0 3.3 2.7 6 6 6h26v-28h-8v-8h8v-4c0-6.613 5.388-12 12-12h8v8h-8c-2.2 0-4 1.8-4 4v4h12l-2 8h-10v28h18c3.3 0 6-2.7 6-6v-52c0-3.3-2.7-6-6-6z"></path>
</symbol>
<symbol id="icon-instagram" viewBox="0 0 64 64">
<path d="M32 5.763c8.55 0 9.563 0.037 12.925 0.188 3.125 0.138 4.813 0.662 5.938 1.1 1.487 0.575 2.563 1.275 3.675 2.387 1.125 1.125 1.813 2.188 2.4 3.675 0.438 1.125 0.962 2.825 1.1 5.938 0.15 3.375 0.188 4.387 0.188 12.925s-0.038 9.563-0.188 12.925c-0.138 3.125-0.663 4.813-1.1 5.938-0.575 1.487-1.275 2.563-2.388 3.675-1.125 1.125-2.188 1.813-3.675 2.4-1.125 0.438-2.825 0.962-5.938 1.1-3.375 0.15-4.388 0.188-12.925 0.188s-9.563-0.038-12.925-0.188c-3.125-0.138-4.813-0.663-5.938-1.1-1.488-0.575-2.563-1.275-3.675-2.388-1.125-1.125-1.813-2.188-2.4-3.675-0.438-1.125-0.963-2.825-1.1-5.938-0.15-3.375-0.188-4.388-0.188-12.925s0.037-9.563 0.188-12.925c0.138-3.125 0.662-4.813 1.1-5.938 0.575-1.488 1.275-2.563 2.388-3.675 1.125-1.125 2.188-1.813 3.675-2.4 1.125-0.438 2.825-0.963 5.938-1.1 3.363-0.15 4.375-0.188 12.925-0.188zM32 0c-8.688 0-9.775 0.037-13.188 0.188-3.4 0.15-5.738 0.7-7.762 1.488-2.113 0.825-3.9 1.913-5.675 3.7-1.788 1.775-2.875 3.563-3.7 5.662-0.787 2.037-1.337 4.362-1.488 7.763-0.15 3.425-0.188 4.512-0.188 13.2s0.037 9.775 0.188 13.188c0.15 3.4 0.7 5.737 1.488 7.763 0.825 2.112 1.913 3.9 3.7 5.675 1.775 1.775 3.562 2.875 5.663 3.688 2.037 0.788 4.363 1.337 7.762 1.487 3.413 0.15 4.5 0.188 13.188 0.188s9.775-0.038 13.187-0.188c3.4-0.15 5.737-0.7 7.763-1.487 2.1-0.813 3.888-1.913 5.663-3.688s2.875-3.563 3.688-5.663c0.788-2.038 1.337-4.362 1.487-7.763 0.15-3.413 0.188-4.5 0.188-13.188s-0.038-9.775-0.188-13.188c-0.15-3.4-0.7-5.738-1.487-7.762-0.788-2.125-1.875-3.912-3.663-5.688-1.775-1.775-3.563-2.875-5.663-3.688-2.038-0.787-4.362-1.337-7.763-1.488-3.425-0.163-4.513-0.2-13.2-0.2v0z"></path>
<path d="M32 15.563c-9.075 0-16.438 7.363-16.438 16.438s7.363 16.438 16.438 16.438 16.438-7.362 16.438-16.438c0-9.075-7.362-16.438-16.438-16.438zM32 42.663c-5.887 0-10.663-4.775-10.663-10.663s4.775-10.663 10.663-10.663c5.888 0 10.663 4.775 10.663 10.663s-4.775 10.663-10.663 10.663z"></path>
<path d="M52.925 14.912c0 2.119-1.718 3.838-3.837 3.838s-3.837-1.718-3.837-3.838c0-2.119 1.718-3.838 3.837-3.838s3.837 1.718 3.837 3.838z"></path>
</symbol>
<symbol id="icon-lorry"  viewBox="0 0 512 512">
<path d="M119.467,349.867c-14.138,0-25.6,11.462-25.6,25.6s11.461,25.6,25.6,25.6s25.6-11.461,25.6-25.6
				C145.051,361.335,133.599,349.882,119.467,349.867z M119.467,384c-4.713,0-8.533-3.82-8.533-8.533s3.82-8.533,8.533-8.533
				s8.533,3.82,8.533,8.533C127.995,380.178,124.178,383.995,119.467,384z"/>
			<path d="M392.533,349.867c-14.138,0-25.6,11.462-25.6,25.6s11.462,25.6,25.6,25.6c14.138,0,25.6-11.461,25.6-25.6
				C418.118,361.335,406.665,349.882,392.533,349.867z M392.533,384c-4.713,0-8.533-3.82-8.533-8.533s3.821-8.533,8.533-8.533
				c4.713,0,8.533,3.82,8.533,8.533C401.062,380.178,397.244,383.995,392.533,384z"/>
			<path d="M505.496,228.4l-58.783-66.2c-4.87-5.484-11.858-8.615-19.192-8.6h-77.654v-51.2c-0.015-14.132-11.468-25.585-25.6-25.6
				H25.6C11.468,76.815,0.015,88.268,0,102.4v221.867c-0.001,2.263,0.898,4.434,2.499,6.035c1.6,1.6,3.771,2.499,6.035,2.499h8.533
				v25.6c0.015,14.132,11.468,25.585,25.6,25.6h17.748c4.206,29.38,29.372,51.2,59.052,51.2s54.846-21.82,59.052-51.2h154.964
				c4.206,29.38,29.372,51.2,59.052,51.2c29.68,0,54.846-21.82,59.052-51.2H486.4c14.132-0.015,25.585-11.468,25.6-25.6V245.417
				C511.994,239.138,509.679,233.082,505.496,228.4z M17.067,315.733V102.4c0.005-4.711,3.822-8.529,8.533-8.533h298.667
				c4.711,0.005,8.529,3.822,8.533,8.533v213.333H17.067z M60.415,366.933H42.667c-4.711-0.005-8.529-3.822-8.533-8.533v-25.6h43.61
				C68.37,341.962,62.279,353.959,60.415,366.933z M119.467,418.133c-23.564,0-42.667-19.103-42.667-42.667
				S95.903,332.8,119.467,332.8s42.667,19.103,42.667,42.667C162.106,399.019,143.019,418.106,119.467,418.133z M204.8,366.933
				h-26.282c-1.864-12.974-7.954-24.972-17.328-34.133h43.61V366.933z M281.6,366.933h-59.733V332.8H281.6V366.933z
				 M333.482,366.933h-34.815V332.8h52.143C341.436,341.962,335.346,353.959,333.482,366.933z M392.533,418.133
				c-23.564,0-42.667-19.103-42.667-42.667s19.102-42.667,42.667-42.667c23.564,0,42.667,19.103,42.667,42.667
				C435.172,399.019,416.086,418.106,392.533,418.133z M494.933,358.4c-0.005,4.711-3.822,8.529-8.533,8.533h-34.815
				c-4.255-29.353-29.391-51.147-59.052-51.2h-42.667V170.667H384V256c0.015,14.132,11.468,25.585,25.6,25.6h85.333V358.4z
				 M494.933,264.533H409.6c-4.711-0.005-8.529-3.822-8.533-8.533v-85.333h26.454c2.45-0.014,4.788,1.024,6.421,2.85l58.804,66.225
				c1.4,1.56,2.178,3.579,2.188,5.675V264.533z"/>
</symbol>
<symbol id="icon-telephone2" viewBox="0 0 512 512">
<path d="M492.381,104.546c-19.646-27.033-54.05-51.433-96.876-68.703C352.91,18.667,303.454,9.169,256.245,9.101
			c-47.213-0.118-96.73,9.282-139.386,26.325c-42.9,17.141-77.387,41.435-97.104,68.404C0.817,129.733-4.641,157.652,3.97,184.569
			c5.586,17.462,21.881,29.211,40.558,29.238l63.951,0.06c0.021,0,0.042,0,0.064,0c12.752-0.001,24.733-5.583,32.875-15.322
			c8.056-9.635,11.393-22.227,9.156-34.549c-0.065-0.361-0.145-0.721-0.236-1.078l-3.365-13.082
			c18.634-8.891,60.854-26.069,109.075-25.796c48.186,0.247,90.377,17.415,109.034,26.31l-3.419,13.008
			c-0.097,0.368-0.179,0.739-0.249,1.112c-2.271,12.315,1.029,24.916,9.057,34.574c8.128,9.78,20.118,15.398,32.903,15.417
			l63.951,0.06c0.021,0,0.043,0,0.064,0c18.641-0.001,34.941-11.696,40.57-29.121C516.65,158.489,511.264,130.53,492.381,104.546z
			 M478.88,176.006c-1.515,4.688-6.238,7.958-11.502,7.958c-0.005,0-0.012,0-0.018,0l-63.951-0.06
			c-3.684-0.005-7.125-1.606-9.441-4.393c-1.259-1.515-3.224-4.666-2.581-9.048l6.362-24.203c1.743-6.633-1.146-13.613-7.067-17.075
			c-2.467-1.442-61.27-35.328-134.478-35.705c-0.407-0.002-0.802-0.003-1.208-0.003c-72.737,0-131.121,33.738-133.584,35.182
			c-5.883,3.45-8.767,10.38-7.068,16.986l6.236,24.242c0.637,4.391-1.34,7.542-2.605,9.056c-2.319,2.774-5.757,4.364-9.441,4.364
			c-0.006,0-0.012,0-0.018,0l-63.952-0.06c-5.263-0.008-9.988-3.294-11.49-7.992c-5.592-17.481-1.774-35.446,11.348-53.394
			c34.857-47.676,123.657-82.207,211.302-82.207c0.156,0,0.323,0,0.479,0c87.732,0.126,176.665,34.971,211.462,82.853
			C480.754,140.524,484.529,158.523,478.88,176.006z"/>
			<path d="M400.595,279.807l-47.691-50.075c-2.885-3.028-6.882-4.741-11.063-4.741h-30.82v-20.823
			c0-8.438-6.84-15.278-15.278-15.278c-8.437,0-15.278,6.84-15.278,15.278v20.823h-48.922v-20.823
			c0-8.438-6.84-15.278-15.278-15.278s-15.278,6.84-15.278,15.278v20.823h-30.819c-4.181,0-8.18,1.714-11.063,4.741l-47.69,50.075
			c-37.392,39.262-57.985,90.744-57.985,144.962v62.853c0,8.438,6.84,15.278,15.278,15.278h374.592
			c8.438,0,15.278-6.84,15.278-15.278v-62.853C458.58,370.55,437.987,319.069,400.595,279.807z M83.986,472.344v-47.575
			c0-46.337,17.599-90.334,49.557-123.89l43.174-45.334h158.576l43.174,45.334c31.956,33.554,49.555,77.553,49.555,123.89v47.575
			H83.986z"/>
			<path d="M256.005,287.135c-44.09,0-79.959,35.87-79.959,79.959c0,44.09,35.87,79.96,79.959,79.96s79.959-35.87,79.959-79.96
			C335.964,323.004,300.095,287.135,256.005,287.135z M256.005,416.497c-27.242,0-49.403-22.162-49.403-49.404
			c0-27.241,22.162-49.403,49.403-49.403s49.403,22.162,49.403,49.403C305.408,394.335,283.246,416.497,256.005,416.497z"/>
</symbol>
<symbol id="icon-comment" viewBox="0 0 384 384">
<path d="m192 384c105.863281 0 192-86.128906 192-192 0-18.273438-2.550781-36.28125-7.601562-53.527344-2.488282-8.480468-11.34375-13.351562-19.847657-10.863281-8.488281 2.480469-13.34375 11.367187-10.863281 19.847656 4.183594 14.328125 6.3125 29.320313 6.3125 44.542969 0 88.222656-71.777344 160-160 160s-160-71.777344-160-160 71.777344-160 160-160c32.0625 0 62.910156 9.375 89.207031 27.105469 7.320313 4.941406 17.273438 3 22.207031-4.320313 4.9375-7.328125 3.011719-17.273437-4.316406-22.210937-31.601562-21.308594-68.632812-32.574219-107.097656-32.574219-105.863281 0-192 86.128906-192 192s86.136719 192 192 192zm0 0"/><path d="m356.6875 36.6875-164.6875 164.679688-52.6875-52.679688c-6.25-6.246094-16.375-6.246094-22.625 0-6.246094 6.25-6.246094 16.375 0 22.625l64 64c3.128906 3.128906 7.214844 4.6875 11.3125 4.6875s8.183594-1.558594 11.3125-4.6875l176-176c6.246094-6.25 6.246094-16.375 0-22.625-6.25-6.246094-16.375-6.246094-22.625 0zm0 0"/>
</symbol>
<symbol id="icon-arrow-down2" viewBox="0 0 64 64">
<path d="M54.828 38.828l-20 20c-1.562 1.562-4.095 1.562-5.657 0l-20-20c-1.562-1.562-1.562-4.095 0-5.657s4.095-1.562 5.657 0l13.171 13.172v-38.343c0-2.209 1.791-4 4-4s4 1.791 4 4v38.343l13.172-13.172c0.781-0.781 1.805-1.172 2.828-1.172s2.047 0.391 2.828 1.172c1.562 1.562 1.562 4.095 0 5.657z"></path>
</symbol>
<symbol id="icon-location" viewBox="0 0 64 64">
<path d="M32 0c-11.046 0-20 8.954-20 20 0 20 20 44 20 44s20-24 20-44c0-11.046-8.954-20-20-20zM32 32c-6.628 0-12-5.372-12-12s5.372-12 12-12 12 5.372 12 12-5.373 12-12 12z"></path>
</symbol>
</defs>
</svg>
